<svg xmlns="http://www.w3.org/2000/svg" viewBox="0 0 134 88.928"><title>kff-logo</title><path d="M5.96,74.269V69.591H1.1v4.678H0V64.02H1.1v4.592H5.96V64.02H7.054V74.269Z" style="fill:#0075c9"/><path d="M9.875,74.269V64.02h6.363V65H10.969v3.613h4.492v.979H10.969v3.7h5.269v.978Z" style="fill:#0075c9"/><path d="M24.975,74.269,19.534,66.05v8.219H18.44V64.02h1.036l5.442,8.191V64.02h1.094V74.269Z" style="fill:#0075c9"/><path d="M34.792,74.269,32.46,69.721H30v4.548H28.9V64.02h3.93a2.773,2.773,0,0,1,3.038,2.85,2.66,2.66,0,0,1-2.232,2.75l2.433,4.649ZM32.733,65H30v3.757h2.735a1.885,1.885,0,1,0,0-3.757Z" style="fill:#0075c9"/><path d="M41.125,70.037v4.232H40.031V70.037L36.979,64.02H38.16l2.418,4.909,2.39-4.909h1.18Z" style="fill:#0075c9"/><path d="M49.445,74.356a3.094,3.094,0,0,1-2.347-.921l.734-.735a2,2,0,0,0,1.613.677c1.338,0,2.1-.849,2.1-2.361v-7H52.64v7.14A3.014,3.014,0,0,1,49.445,74.356Z" style="fill:#0075c9"/><path d="M65.422,74.269,62.3,68.814l-2.16,2.591v2.864H59.045V64.02h1.094v5.888l4.78-5.888h1.338l-3.224,3.959,3.685,6.29Z" style="fill:#0075c9"/><path d="M74.375,74.269l-.82-2.317H69.078l-.82,2.317H67.092L70.863,64.02h.921l3.757,10.249Zm-3.037-8.68L69.409,71h3.829Z" style="fill:#0075c9"/><path d="M77.2,74.269V64.02H78.29V74.269Z" style="fill:#0075c9"/><path d="M83.962,74.356A4.471,4.471,0,0,1,80.449,73l.749-.749a3.522,3.522,0,0,0,2.793,1.123c1.5,0,2.418-.7,2.418-1.9a1.646,1.646,0,0,0-.49-1.281,2.206,2.206,0,0,0-1.338-.49l-1.2-.187a3.727,3.727,0,0,1-1.886-.777,2.424,2.424,0,0,1-.777-1.915c0-1.742,1.252-2.893,3.282-2.893a4.114,4.114,0,0,1,3.052,1.123l-.706.7a3.228,3.228,0,0,0-2.389-.878,1.894,1.894,0,0,0-2.16,1.9,1.477,1.477,0,0,0,.461,1.18,2.95,2.95,0,0,0,1.382.562l1.123.173a3.3,3.3,0,0,1,1.871.719,2.566,2.566,0,0,1,.864,2.03C87.5,73.247,86.092,74.356,83.962,74.356Z" style="fill:#0075c9"/><path d="M89.647,74.269V64.02H96.01V65H90.741v3.613h4.492v.979H90.741v3.7H96.01v.978Z" style="fill:#0075c9"/><path d="M104.171,74.269l-2.332-4.548H99.378v4.548H98.284V64.02h3.93a2.772,2.772,0,0,1,3.037,2.85,2.66,2.66,0,0,1-2.231,2.75l2.432,4.649ZM102.113,65H99.378v3.757h2.735a1.885,1.885,0,1,0,0-3.757Z" style="fill:#0075c9"/><path d="M1.094,79.572v3.771H5.585v.979H1.094v4.519H0V78.594H6.362v.978Z" style="fill:#0075c9"/><path d="M13.529,88.841l-.821-2.317H8.232l-.82,2.317H6.246l3.771-10.247h.921L14.7,88.841Zm-3.037-8.679L8.563,85.574h3.829Z" style="fill:#0075c9"/><path d="M24.036,88.841V81.055l-2.807,6.174h-.935l-2.85-6.174v7.786H16.35V78.594h1.094l3.339,7.268,3.253-7.268H25.13V88.841Z" style="fill:#0075c9"/><path d="M28.023,88.841V78.594h1.094V88.841Z" style="fill:#0075c9"/><path d="M32.01,88.841V78.594H33.1v9.269h5.239v.978Z" style="fill:#0075c9"/><path d="M41.811,84.61v4.231H40.717V84.61l-3.051-6.016h1.18L41.264,83.5l2.389-4.908h1.181Z" style="fill:#0075c9"/><path d="M51.109,79.572v3.771H55.6v.979H51.109v4.519H50.015V78.594h6.362v.978Z" style="fill:#0075c9"/><path d="M63.962,87.863a3.754,3.754,0,0,1-5.239,0c-.964-.965-.964-1.972-.964-4.145s0-3.181.964-4.146a3.754,3.754,0,0,1,5.239,0c.964.965.964,1.972.964,4.146S64.926,86.9,63.962,87.863Zm-.849-7.643a2.5,2.5,0,0,0-3.541,0c-.647.662-.719,1.353-.719,3.5s.072,2.835.719,3.5a2.5,2.5,0,0,0,3.541,0c.648-.662.72-1.353.72-3.5S63.761,80.882,63.113,80.22Z" style="fill:#0075c9"/><path d="M70.929,88.928a3.383,3.383,0,0,1-3.57-3.469V78.594h1.094v6.779a2.485,2.485,0,1,0,4.966,0V78.594h1.094v6.865A3.4,3.4,0,0,1,70.929,88.928Z" style="fill:#0075c9"/><path d="M83.868,88.841l-5.44-8.218v8.218H77.334V78.594H78.37l5.441,8.189V78.594h1.094V88.841Z" style="fill:#0075c9"/><path d="M93.973,87.891a3.583,3.583,0,0,1-2.591.95H87.87V78.594h3.512a3.587,3.587,0,0,1,2.591.949c1.065,1.066,1.007,2.634,1.007,4.059S95.038,86.826,93.973,87.891Zm-.763-7.57a2.668,2.668,0,0,0-2.015-.749H88.964v8.291H91.2a2.668,2.668,0,0,0,2.015-.749c.705-.734.676-2.26.676-3.512S93.915,81.055,93.21,80.321Z" style="fill:#0075c9"/><path d="M103.314,88.841l-.82-2.317H98.017l-.82,2.317H96.031L99.8,78.594h.921l3.757,10.247Zm-3.037-8.679-1.929,5.412h3.829Z" style="fill:#0075c9"/><path d="M108.063,79.572v9.269h-1.094V79.572H104v-.978h7.024v.978Z" style="fill:#0075c9"/><path d="M112.942,88.841V78.594h1.094V88.841Z" style="fill:#0075c9"/><path d="M122.888,87.863a3.754,3.754,0,0,1-5.239,0c-.964-.965-.964-1.972-.964-4.145s0-3.181.964-4.146a3.754,3.754,0,0,1,5.239,0c.965.965.965,1.972.965,4.146S123.853,86.9,122.888,87.863Zm-.849-7.643a2.5,2.5,0,0,0-3.541,0c-.647.662-.719,1.353-.719,3.5s.072,2.835.719,3.5a2.5,2.5,0,0,0,3.541,0c.648-.662.72-1.353.72-3.5S122.687,80.882,122.039,80.22Z" style="fill:#0075c9"/><path d="M132.964,88.841l-5.441-8.218v8.218h-1.094V78.594h1.037l5.44,8.189V78.594H134V88.841Z" style="fill:#0075c9"/><path d="M.006,57.185V0H17.162V57.185Zm32.961,0L17.877,26.528v-.159L31.776,0H50.2L35.429,25.813,51.553,57.185Z" style="fill:#0075c9"/><path d="M70.932,13.184V23.271H84.514V36.059H70.932V57.185H53.777V0H91.9V13.184Z" style="fill:#0075c9"/><path d="M113.027,13.184V23.271h13.581V36.059H113.027V57.185H95.871V0H134V13.184Z" style="fill:#0075c9"/></svg>