<svg xmlns="http://www.w3.org/2000/svg" viewBox="0 0 120 58.676"><title>Asset 9</title><path d="M5.294,58.6,2.7,54.079.912,56.228V58.6H.005V50.1H.912v4.884L4.877,50.1h1.11L3.312,53.386,6.369,58.6Z" style="fill:#fff"/><path d="M12.722,58.6l-.681-1.922H8.328L7.647,58.6H6.68l3.128-8.5h.765l3.116,8.5ZM10.2,51.4l-1.6,4.49h3.177Z" style="fill:#fff"/><path d="M15.063,58.6V50.1h.907v8.5Z" style="fill:#fff"/><path d="M20.675,58.676a3.707,3.707,0,0,1-2.914-1.123l.621-.621a2.92,2.92,0,0,0,2.317.932c1.242,0,2.006-.585,2.006-1.576a1.371,1.371,0,0,0-.406-1.063,1.831,1.831,0,0,0-1.111-.406l-.991-.155a3.1,3.1,0,0,1-1.564-.645,2.009,2.009,0,0,1-.645-1.588c0-1.445,1.039-2.4,2.723-2.4a3.411,3.411,0,0,1,2.531.931l-.585.585a2.677,2.677,0,0,0-1.982-.728A1.57,1.57,0,0,0,18.884,52.4a1.226,1.226,0,0,0,.382.979,2.443,2.443,0,0,0,1.146.466l.931.143a2.739,2.739,0,0,1,1.553.6,2.131,2.131,0,0,1,.716,1.684C23.612,57.756,22.442,58.676,20.675,58.676Z" style="fill:#fff"/><path d="M25.392,58.6V50.1h5.277v.812H26.3v3h3.726v.812H26.3v3.069h4.37V58.6Z" style="fill:#fff"/><path d="M37.44,58.6l-1.934-3.773H33.464V58.6h-.908V50.1h3.26a2.3,2.3,0,0,1,2.52,2.365,2.206,2.206,0,0,1-1.851,2.28L38.5,58.6Zm-1.707-7.69H33.464v3.117h2.269a1.564,1.564,0,1,0,0-3.117Z" style="fill:#fff"/><path d="M48.306,58.6V54.723H44.27V58.6h-.907V50.1h.907v3.809h4.036V50.1h.908v8.5Z" style="fill:#fff"/><path d="M51.376,58.6V50.1h5.277v.812h-4.37v3h3.726v.812H52.283v3.069h4.37V58.6Z" style="fill:#fff"/><path d="M63.5,58.6l-.681-1.922H59.1L58.421,58.6h-.967l3.128-8.5h.764l3.117,8.5Zm-2.52-7.2-1.6,4.49h3.176Z" style="fill:#fff"/><path d="M65.836,58.6V50.1h.908v7.69H71.09V58.6Z" style="fill:#fff"/><path d="M73.621,50.914V58.6h-.908v-7.69H70.254V50.1h5.827v.812Z" style="fill:#fff"/><path d="M82.612,58.6V54.723H78.576V58.6h-.907V50.1h.907v3.809h4.036V50.1h.908v8.5Z" style="fill:#fff"/><path d="M94.374,58.6l-4.513-6.818V58.6h-.908V50.1h.86L94.327,56.9V50.1h.907v8.5Z" style="fill:#fff"/><path d="M97.4,58.6V50.1h5.277v.812H98.3v3h3.726v.812H98.3v3.069h4.37V58.6Z" style="fill:#fff"/><path d="M111.283,58.6h-.848L108.548,51.8,106.662,58.6h-.848l-2.173-8.5h.967l1.66,6.854,1.874-6.854h.812l1.875,6.854,1.66-6.854h.967Z" style="fill:#fff"/><path d="M117.063,58.676a3.707,3.707,0,0,1-2.914-1.123l.621-.621a2.918,2.918,0,0,0,2.316.932c1.242,0,2.006-.585,2.006-1.576a1.368,1.368,0,0,0-.406-1.063,1.824,1.824,0,0,0-1.11-.406l-.991-.155a3.1,3.1,0,0,1-1.564-.645,2.009,2.009,0,0,1-.645-1.588c0-1.445,1.039-2.4,2.722-2.4a3.413,3.413,0,0,1,2.532.931l-.585.585a2.679,2.679,0,0,0-1.982-.728,1.571,1.571,0,0,0-1.792,1.576,1.229,1.229,0,0,0,.382.979,2.451,2.451,0,0,0,1.147.466l.931.143a2.743,2.743,0,0,1,1.553.6A2.131,2.131,0,0,1,120,56.264C120,57.756,118.83,58.676,117.063,58.676Z" style="fill:#fff"/><path d="M0,45.666V0H13.7V45.666Zm26.322,0L14.271,21.184v-.127L25.37,0H40.085l-11.8,20.613L41.163,45.666Z" style="fill:#fff"/><path d="M65.9,45.666v-17.5h-9.26v17.5h-13.7V0h13.7V16.364H65.9V0H79.6V45.666Z" style="fill:#fff"/><path d="M108.393,45.666l-12.241-23.4H95.9v23.4H83.34V0H96.215l10.973,21.121h.254V0H120V45.666Z" style="fill:#fff"/></svg>